# xmcd
#
# Track frame offsets:
#	150
#	29840
#	59157
#	91611
#	133039
#	185741
#	218353
#	250295
#	277784
#	306407
#
# Disc length: 4792 seconds
#
# Revision: 2
# Processed by: cddbd v1.5.2PL0 Copyright (c) Steve Scherf et al.
# Submitted via: EZCDAudioConverter 2.4.0.1
#
DISCID=9212b60a
DTITLE=Various Artist - Akella Presents - vol.95 - Long Time Blues  CD1
DYEAR=2016
DGENRE=Blues
TTITLE0=Julian Sas - Shame On You
TTITLE1=Thorbjorn Risager - Bells Of Joy
TTITLE2=Tim Fik and Bridget Kelly Band - Every Day Without You
TTITLE3=Jimmy D. Lane - In This Bed
TTITLE4=Diane Blue and Ronnie Earl - Double Trouble
TTITLE5=Too Slim and The Taildraggers - She's Not Comin' Back
TTITLE6=Oli Brown - I Love You More You'll Ever Know
TTITLE7=The Lee Boys - Wade in the Water
TTITLE8=Beau Kavanagh and The Broken Hearted - All Alone
TTITLE9=Black Hole Raven - Welcome
EXTD=
EXTT0=
EXTT1=
EXTT2=
EXTT3=
EXTT4=
EXTT5=
EXTT6=
EXTT7=
EXTT8=
EXTT9=
PLAYORDER=
